<svg width="375" height="491" viewBox="0 0 375 491" fill="none" xmlns="http://www.w3.org/2000/svg">
<path fill-rule="evenodd" clip-rule="evenodd" d="M211.978 117.626C243.562 131.649 286.445 100.495 313.807 121.603C341.777 143.181 324.78 192.304 345.69 220.777C370.676 254.799 446.833 255.91 443.335 297.976C439.672 342.032 369.188 342.096 333.439 368.102C313.751 382.425 297.698 399.359 280.408 416.501C256.484 440.22 244.099 478.363 211.978 488.52C179.38 498.828 147.078 471.944 112.981 469.443C47.4222 464.634 -27.1573 504.964 -80.8497 467.04C-129.599 432.607 -127.915 357.631 -129.777 297.976C-131.674 237.177 -121.701 175.565 -91.5936 122.709C-61.4017 69.7048 -21.044 1.03282 39.9476 0.0115405C110.606 -1.1716 147.389 88.9494 211.978 117.626Z" fill="#8DA9C4"/>
</svg>
